{"asset":{"version":"2.0","generator":"babylon.js glTF exporter for 3dsmax 2019 v20200701.2"},"scene":0,"scenes":[{"nodes":[0,1]}],"nodes":[{"mesh":0,"rotation":[0.7071068,0.0,0.0,0.7071067],"scale":[999.999939,999.999939,999.999939],"name":"female_01"},{"name":"Default light"}],"meshes":[{"primitives":[{"attributes":{"POSITION":1,"NORMAL":2,"COLOR_0":3,"TEXCOORD_0":4},"indices":0}],"name":"female_01"}],"accessors":[{"bufferView":0,"componentType":5123,"count":5655,"type":"SCALAR","name":"accessorIndices"},{"bufferView":1,"componentType":5126,"count":5655,"max":[0.000840578752,0.0001738706,3.67069674E-07],"min":[-0.000840578752,-0.000131538312,-0.00187168957],"type":"VEC3","name":"accessorPositions"},{"bufferView":1,"byteOffset":67860,"componentType":5126,"count":5655,"type":"VEC3","name":"accessorNormals"},{"bufferView":2,"componentType":5126,"count":5655,"type":"VEC4","name":"accessorColors"},{"bufferView":3,"componentType":5126,"count":5655,"type":"VEC2","name":"accessorUVs"}],"bufferViews":[{"buffer":0,"byteLength":11312,"name":"bufferViewScalar"},{"buffer":0,"byteOffset":11312,"byteLength":135720,"byteStride":12,"name":"bufferViewFloatVec3"},{"buffer":0,"byteOffset":147032,"byteLength":90480,"byteStride":16,"name":"bufferViewFloatVec4"},{"buffer":0,"byteOffset":237512,"byteLength":45240,"byteStride":8,"name":"bufferViewFloatVec2"}],"buffers":[{"uri":"protester_01.bin","byteLength":282752}]}